<?xml version="1.0" encoding="UTF-8" standalone="no"?>
<!DOCTYPE svg PUBLIC "-//W3C//DTD SVG 1.1//EN"
 "http://www.w3.org/Graphics/SVG/1.1/DTD/svg11.dtd">
<!-- Generated by graphviz version 2.50.0 (20211209.0339)
 -->
<!-- Title: snakemake_dag Pages: 1 -->
<svg width="2300pt" height="476pt"
 viewBox="0.00 0.00 2299.74 476.00" xmlns="http://www.w3.org/2000/svg" xmlns:xlink="http://www.w3.org/1999/xlink">
<g id="graph0" class="graph" transform="scale(1 1) rotate(0) translate(4 472)">
<title>snakemake_dag</title>
<polygon fill="white" stroke="transparent" points="-4,4 -4,-472 2295.74,-472 2295.74,4 -4,4"/>
<!-- 0 -->
<g id="node1" class="node">
<title>0</title>
<path fill="none" stroke="#56a9d8" stroke-width="2" d="M1222,-36C1222,-36 1151,-36 1151,-36 1145,-36 1139,-30 1139,-24 1139,-24 1139,-12 1139,-12 1139,-6 1145,0 1151,0 1151,0 1222,0 1222,0 1228,0 1234,-6 1234,-12 1234,-12 1234,-24 1234,-24 1234,-30 1228,-36 1222,-36"/>
<text text-anchor="middle" x="1186.5" y="-15.5" font-family="sans" font-size="10.00">make_summary</text>
</g>
<!-- 1 -->
<g id="node2" class="node">
<title>1</title>
<path fill="none" stroke="#d88556" stroke-width="2" d="M83,-108C83,-108 12,-108 12,-108 6,-108 0,-102 0,-96 0,-96 0,-84 0,-84 0,-78 6,-72 12,-72 12,-72 83,-72 83,-72 89,-72 95,-78 95,-84 95,-84 95,-96 95,-96 95,-102 89,-108 83,-108"/>
<text text-anchor="middle" x="47.5" y="-87.5" font-family="sans" font-size="10.00">make_rulegraph</text>
</g>
<!-- 1&#45;&gt;0 -->
<g id="edge4" class="edge">
<title>1&#45;&gt;0</title>
<path fill="none" stroke="grey" stroke-width="2" d="M95.27,-73.65C98.04,-73.03 100.8,-72.47 103.5,-72 303.37,-37.32 934.28,-23.47 1128.82,-19.96"/>
<polygon fill="grey" stroke="grey" stroke-width="2" points="1128.9,-23.45 1138.83,-19.78 1128.77,-16.46 1128.9,-23.45"/>
</g>
<!-- 2 -->
<g id="node3" class="node">
<title>2</title>
<path fill="none" stroke="#d87556" stroke-width="2" d="M518.5,-252C518.5,-252 432.5,-252 432.5,-252 426.5,-252 420.5,-246 420.5,-240 420.5,-240 420.5,-228 420.5,-228 420.5,-222 426.5,-216 432.5,-216 432.5,-216 518.5,-216 518.5,-216 524.5,-216 530.5,-222 530.5,-228 530.5,-228 530.5,-240 530.5,-240 530.5,-246 524.5,-252 518.5,-252"/>
<text text-anchor="middle" x="475.5" y="-231.5" font-family="sans" font-size="10.00">get_mut_bind_expr</text>
</g>
<!-- 2&#45;&gt;0 -->
<g id="edge2" class="edge">
<title>2&#45;&gt;0</title>
<path fill="none" stroke="grey" stroke-width="2" d="M503.32,-215.93C517.51,-206.42 534.47,-193.74 547.5,-180 587.03,-138.32 569.26,-101.59 618.5,-72 703.24,-21.08 1001.24,-17.35 1128.35,-18.17"/>
<polygon fill="grey" stroke="grey" stroke-width="2" points="1128.63,-21.67 1138.65,-18.25 1128.68,-14.67 1128.63,-21.67"/>
</g>
<!-- 4 -->
<g id="node5" class="node">
<title>4</title>
<path fill="none" stroke="#61d856" stroke-width="2" d="M268,-108C268,-108 125,-108 125,-108 119,-108 113,-102 113,-96 113,-96 113,-84 113,-84 113,-78 119,-72 125,-72 125,-72 268,-72 268,-72 274,-72 280,-78 280,-84 280,-84 280,-96 280,-96 280,-102 274,-108 268,-108"/>
<text text-anchor="middle" x="196.5" y="-87.5" font-family="sans" font-size="10.00">bind_expr_filters_Wuhan_Hu_1</text>
</g>
<!-- 2&#45;&gt;4 -->
<g id="edge28" class="edge">
<title>2&#45;&gt;4</title>
<path fill="none" stroke="grey" stroke-width="2" d="M420.25,-231.49C341.86,-228.05 204.4,-216.79 173.5,-180 158.62,-162.28 167.98,-136.07 178.89,-116.68"/>
<polygon fill="grey" stroke="grey" stroke-width="2" points="181.93,-118.41 184.1,-108.04 175.94,-114.8 181.93,-118.41"/>
</g>
<!-- 5 -->
<g id="node6" class="node">
<title>5</title>
<path fill="none" stroke="#d86656" stroke-width="2" d="M340,-180C340,-180 195,-180 195,-180 189,-180 183,-174 183,-168 183,-168 183,-156 183,-156 183,-150 189,-144 195,-144 195,-144 340,-144 340,-144 346,-144 352,-150 352,-156 352,-156 352,-168 352,-168 352,-174 346,-180 340,-180"/>
<text text-anchor="middle" x="267.5" y="-159.5" font-family="sans" font-size="10.00">bind_expr_filters_Omicron_BA1</text>
</g>
<!-- 2&#45;&gt;5 -->
<g id="edge29" class="edge">
<title>2&#45;&gt;5</title>
<path fill="none" stroke="grey" stroke-width="2" d="M424.88,-215.97C395.69,-206.14 358.81,-193.73 328.08,-183.39"/>
<polygon fill="grey" stroke="grey" stroke-width="2" points="328.94,-179.98 318.34,-180.11 326.7,-186.62 328.94,-179.98"/>
</g>
<!-- 6 -->
<g id="node7" class="node">
<title>6</title>
<path fill="none" stroke="#80d856" stroke-width="2" d="M527,-180C527,-180 382,-180 382,-180 376,-180 370,-174 370,-168 370,-168 370,-156 370,-156 370,-150 376,-144 382,-144 382,-144 527,-144 527,-144 533,-144 539,-150 539,-156 539,-156 539,-168 539,-168 539,-174 533,-180 527,-180"/>
<text text-anchor="middle" x="454.5" y="-159.5" font-family="sans" font-size="10.00">bind_expr_filters_Omicron_BA2</text>
</g>
<!-- 2&#45;&gt;6 -->
<g id="edge30" class="edge">
<title>2&#45;&gt;6</title>
<path fill="none" stroke="grey" stroke-width="2" d="M470.31,-215.7C467.97,-207.9 465.15,-198.51 462.55,-189.83"/>
<polygon fill="grey" stroke="grey" stroke-width="2" points="465.86,-188.68 459.63,-180.1 459.15,-190.69 465.86,-188.68"/>
</g>
<!-- 22 -->
<g id="node23" class="node">
<title>22</title>
<path fill="none" stroke="#56b9d8" stroke-width="2" d="M782,-180C782,-180 645,-180 645,-180 639,-180 633,-174 633,-168 633,-168 633,-156 633,-156 633,-150 639,-144 645,-144 645,-144 782,-144 782,-144 788,-144 794,-150 794,-156 794,-156 794,-168 794,-168 794,-174 788,-180 782,-180"/>
<text text-anchor="middle" x="713.5" y="-159.5" font-family="sans" font-size="10.00">escape_profiles_Wuhan_Hu_1</text>
</g>
<!-- 2&#45;&gt;22 -->
<g id="edge45" class="edge">
<title>2&#45;&gt;22</title>
<path fill="none" stroke="grey" stroke-width="2" d="M530.7,-216.76C564.97,-206.69 609.25,-193.66 645.65,-182.95"/>
<polygon fill="grey" stroke="grey" stroke-width="2" points="647.09,-186.18 655.7,-180 645.12,-179.46 647.09,-186.18"/>
</g>
<!-- 23 -->
<g id="node24" class="node">
<title>23</title>
<path fill="none" stroke="#56d8c1" stroke-width="2" d="M1403.5,-180C1403.5,-180 1263.5,-180 1263.5,-180 1257.5,-180 1251.5,-174 1251.5,-168 1251.5,-168 1251.5,-156 1251.5,-156 1251.5,-150 1257.5,-144 1263.5,-144 1263.5,-144 1403.5,-144 1403.5,-144 1409.5,-144 1415.5,-150 1415.5,-156 1415.5,-156 1415.5,-168 1415.5,-168 1415.5,-174 1409.5,-180 1403.5,-180"/>
<text text-anchor="middle" x="1333.5" y="-159.5" font-family="sans" font-size="10.00">escape_profiles_Omicron_BA1</text>
</g>
<!-- 2&#45;&gt;23 -->
<g id="edge46" class="edge">
<title>2&#45;&gt;23</title>
<path fill="none" stroke="grey" stroke-width="2" d="M530.51,-217.67C533.54,-217.05 536.55,-216.49 539.5,-216 573.6,-210.39 1039.6,-181.16 1241.4,-168.67"/>
<polygon fill="grey" stroke="grey" stroke-width="2" points="1241.63,-172.16 1251.39,-168.05 1241.19,-165.18 1241.63,-172.16"/>
</g>
<!-- 24 -->
<g id="node25" class="node">
<title>24</title>
<path fill="none" stroke="#d89c56" stroke-width="2" d="M1979.5,-180C1979.5,-180 1839.5,-180 1839.5,-180 1833.5,-180 1827.5,-174 1827.5,-168 1827.5,-168 1827.5,-156 1827.5,-156 1827.5,-150 1833.5,-144 1839.5,-144 1839.5,-144 1979.5,-144 1979.5,-144 1985.5,-144 1991.5,-150 1991.5,-156 1991.5,-156 1991.5,-168 1991.5,-168 1991.5,-174 1985.5,-180 1979.5,-180"/>
<text text-anchor="middle" x="1909.5" y="-159.5" font-family="sans" font-size="10.00">escape_profiles_Omicron_BA2</text>
</g>
<!-- 2&#45;&gt;24 -->
<g id="edge49" class="edge">
<title>2&#45;&gt;24</title>
<path fill="none" stroke="grey" stroke-width="2" d="M530.85,-217.5C533.76,-216.93 536.66,-216.43 539.5,-216 571.11,-211.25 1514.82,-177.14 1817.23,-166.3"/>
<polygon fill="grey" stroke="grey" stroke-width="2" points="1817.41,-169.79 1827.28,-165.94 1817.16,-162.8 1817.41,-169.79"/>
</g>
<!-- 3 -->
<g id="node4" class="node">
<title>3</title>
<path fill="none" stroke="#9fd856" stroke-width="2" d="M450.5,-108C450.5,-108 310.5,-108 310.5,-108 304.5,-108 298.5,-102 298.5,-96 298.5,-96 298.5,-84 298.5,-84 298.5,-78 304.5,-72 310.5,-72 310.5,-72 450.5,-72 450.5,-72 456.5,-72 462.5,-78 462.5,-84 462.5,-84 462.5,-96 462.5,-96 462.5,-102 456.5,-108 450.5,-108"/>
<text text-anchor="middle" x="380.5" y="-87.5" font-family="sans" font-size="10.00">get_early2020_mut_bind_expr</text>
</g>
<!-- 3&#45;&gt;0 -->
<g id="edge12" class="edge">
<title>3&#45;&gt;0</title>
<path fill="none" stroke="grey" stroke-width="2" d="M462.64,-73.89C467.32,-73.21 471.97,-72.57 476.5,-72 717.82,-41.7 1007.62,-26.67 1128.81,-21.33"/>
<polygon fill="grey" stroke="grey" stroke-width="2" points="1129.14,-24.82 1138.97,-20.89 1128.83,-17.83 1129.14,-24.82"/>
</g>
<!-- 4&#45;&gt;0 -->
<g id="edge15" class="edge">
<title>4&#45;&gt;0</title>
<path fill="none" stroke="grey" stroke-width="2" d="M280.08,-73.23C283.26,-72.78 286.4,-72.37 289.5,-72 604.54,-34.04 985.25,-22.94 1128.37,-19.99"/>
<polygon fill="grey" stroke="grey" stroke-width="2" points="1128.74,-23.48 1138.67,-19.78 1128.6,-16.48 1128.74,-23.48"/>
</g>
<!-- 5&#45;&gt;0 -->
<g id="edge3" class="edge">
<title>5&#45;&gt;0</title>
<path fill="none" stroke="grey" stroke-width="2" d="M351.96,-143.98C398.54,-133.64 450.99,-120.13 471.5,-108 490.44,-96.8 485.64,-81.49 505.5,-72 614.97,-19.68 984.55,-17.14 1128.46,-18.23"/>
<polygon fill="grey" stroke="grey" stroke-width="2" points="1128.81,-21.73 1138.84,-18.31 1128.87,-14.73 1128.81,-21.73"/>
</g>
<!-- 6&#45;&gt;0 -->
<g id="edge14" class="edge">
<title>6&#45;&gt;0</title>
<path fill="none" stroke="grey" stroke-width="2" d="M470.65,-143.92C493.24,-120.45 533.64,-80.21 552.5,-72 655.04,-27.39 991.98,-20.19 1128.39,-19.13"/>
<polygon fill="grey" stroke="grey" stroke-width="2" points="1128.66,-22.63 1138.64,-19.06 1128.61,-15.63 1128.66,-22.63"/>
</g>
<!-- 7 -->
<g id="node8" class="node">
<title>7</title>
<path fill="none" stroke="#c6d856" stroke-width="2" d="M1156.5,-396C1156.5,-396 968.5,-396 968.5,-396 962.5,-396 956.5,-390 956.5,-384 956.5,-384 956.5,-372 956.5,-372 956.5,-366 962.5,-360 968.5,-360 968.5,-360 1156.5,-360 1156.5,-360 1162.5,-360 1168.5,-366 1168.5,-372 1168.5,-372 1168.5,-384 1168.5,-384 1168.5,-390 1162.5,-396 1156.5,-396"/>
<text text-anchor="middle" x="1062.5" y="-375.5" font-family="sans" font-size="10.00">aggregate_variant_counts_Wuhan_Hu_1</text>
</g>
<!-- 7&#45;&gt;0 -->
<g id="edge8" class="edge">
<title>7&#45;&gt;0</title>
<path fill="none" stroke="grey" stroke-width="2" d="M1066.54,-359.8C1075.25,-318.29 1091.32,-211.09 1043.5,-144 1020.4,-111.59 983.26,-141.32 961.5,-108 952.75,-94.6 951.57,-84.54 961.5,-72 982.02,-46.09 1069.29,-31.58 1128.91,-24.53"/>
<polygon fill="grey" stroke="grey" stroke-width="2" points="1129.42,-27.99 1138.96,-23.38 1128.63,-21.04 1129.42,-27.99"/>
</g>
<!-- 13 -->
<g id="node14" class="node">
<title>13</title>
<path fill="none" stroke="#d8ac56" stroke-width="2" d="M1146.5,-108C1146.5,-108 982.5,-108 982.5,-108 976.5,-108 970.5,-102 970.5,-96 970.5,-96 970.5,-84 970.5,-84 970.5,-78 976.5,-72 982.5,-72 982.5,-72 1146.5,-72 1146.5,-72 1152.5,-72 1158.5,-78 1158.5,-84 1158.5,-84 1158.5,-96 1158.5,-96 1158.5,-102 1152.5,-108 1146.5,-108"/>
<text text-anchor="middle" x="1064.5" y="-87.5" font-family="sans" font-size="10.00">counts_to_cells_ratio_Wuhan_Hu_1</text>
</g>
<!-- 7&#45;&gt;13 -->
<g id="edge34" class="edge">
<title>7&#45;&gt;13</title>
<path fill="none" stroke="grey" stroke-width="2" d="M1068.32,-359.56C1071.43,-349.33 1074.93,-336.08 1076.5,-324 1086.8,-244.67 1085.39,-223.5 1076.5,-144 1075.54,-135.43 1073.74,-126.22 1071.81,-117.93"/>
<polygon fill="grey" stroke="grey" stroke-width="2" points="1075.16,-116.89 1069.37,-108.02 1068.37,-118.57 1075.16,-116.89"/>
</g>
<!-- 16 -->
<g id="node17" class="node">
<title>16</title>
<path fill="none" stroke="#d85656" stroke-width="2" d="M914.5,-324C914.5,-324 768.5,-324 768.5,-324 762.5,-324 756.5,-318 756.5,-312 756.5,-312 756.5,-300 756.5,-300 756.5,-294 762.5,-288 768.5,-288 768.5,-288 914.5,-288 914.5,-288 920.5,-288 926.5,-294 926.5,-300 926.5,-300 926.5,-312 926.5,-312 926.5,-318 920.5,-324 914.5,-324"/>
<text text-anchor="middle" x="841.5" y="-303.5" font-family="sans" font-size="10.00">counts_to_scores_Wuhan_Hu_1</text>
</g>
<!-- 7&#45;&gt;16 -->
<g id="edge37" class="edge">
<title>7&#45;&gt;16</title>
<path fill="none" stroke="grey" stroke-width="2" d="M1008.72,-359.97C977.57,-350.1 938.18,-337.62 905.45,-327.25"/>
<polygon fill="grey" stroke="grey" stroke-width="2" points="906.11,-323.79 895.52,-324.11 904,-330.47 906.11,-323.79"/>
</g>
<!-- 8 -->
<g id="node9" class="node">
<title>8</title>
<path fill="none" stroke="#70d856" stroke-width="2" d="M1129.5,-468C1129.5,-468 995.5,-468 995.5,-468 989.5,-468 983.5,-462 983.5,-456 983.5,-456 983.5,-444 983.5,-444 983.5,-438 989.5,-432 995.5,-432 995.5,-432 1129.5,-432 1129.5,-432 1135.5,-432 1141.5,-438 1141.5,-444 1141.5,-444 1141.5,-456 1141.5,-456 1141.5,-462 1135.5,-468 1129.5,-468"/>
<text text-anchor="middle" x="1062.5" y="-447.5" font-family="sans" font-size="10.00">count_variants_Wuhan_Hu_1</text>
</g>
<!-- 8&#45;&gt;7 -->
<g id="edge31" class="edge">
<title>8&#45;&gt;7</title>
<path fill="none" stroke="grey" stroke-width="2" d="M1062.5,-431.7C1062.5,-423.98 1062.5,-414.71 1062.5,-406.11"/>
<polygon fill="grey" stroke="grey" stroke-width="2" points="1066,-406.1 1062.5,-396.1 1059,-406.1 1066,-406.1"/>
</g>
<!-- 9 -->
<g id="node10" class="node">
<title>9</title>
<path fill="none" stroke="#56d85b" stroke-width="2" d="M1539,-396C1539,-396 1348,-396 1348,-396 1342,-396 1336,-390 1336,-384 1336,-384 1336,-372 1336,-372 1336,-366 1342,-360 1348,-360 1348,-360 1539,-360 1539,-360 1545,-360 1551,-366 1551,-372 1551,-372 1551,-384 1551,-384 1551,-390 1545,-396 1539,-396"/>
<text text-anchor="middle" x="1443.5" y="-375.5" font-family="sans" font-size="10.00">aggregate_variant_counts_Omicron_BA1</text>
</g>
<!-- 9&#45;&gt;0 -->
<g id="edge16" class="edge">
<title>9&#45;&gt;0</title>
<path fill="none" stroke="grey" stroke-width="2" d="M1540.19,-359.99C1607.59,-341.93 1685.5,-305.76 1685.5,-235 1685.5,-235 1685.5,-235 1685.5,-161 1685.5,-70.23 1376.22,-34.37 1244.64,-23.22"/>
<polygon fill="grey" stroke="grey" stroke-width="2" points="1244.6,-19.71 1234.35,-22.37 1244.02,-26.68 1244.6,-19.71"/>
</g>
<!-- 15 -->
<g id="node16" class="node">
<title>15</title>
<path fill="none" stroke="#56d882" stroke-width="2" d="M1317,-324C1317,-324 1150,-324 1150,-324 1144,-324 1138,-318 1138,-312 1138,-312 1138,-300 1138,-300 1138,-294 1144,-288 1150,-288 1150,-288 1317,-288 1317,-288 1323,-288 1329,-294 1329,-300 1329,-300 1329,-312 1329,-312 1329,-318 1323,-324 1317,-324"/>
<text text-anchor="middle" x="1233.5" y="-303.5" font-family="sans" font-size="10.00">counts_to_cells_ratio_Omicron_BA1</text>
</g>
<!-- 9&#45;&gt;15 -->
<g id="edge36" class="edge">
<title>9&#45;&gt;15</title>
<path fill="none" stroke="grey" stroke-width="2" d="M1392.4,-359.97C1362.93,-350.14 1325.69,-337.73 1294.67,-327.39"/>
<polygon fill="grey" stroke="grey" stroke-width="2" points="1295.43,-323.95 1284.83,-324.11 1293.21,-330.59 1295.43,-323.95"/>
</g>
<!-- 17 -->
<g id="node18" class="node">
<title>17</title>
<path fill="none" stroke="#56d8b1" stroke-width="2" d="M1517.5,-324C1517.5,-324 1369.5,-324 1369.5,-324 1363.5,-324 1357.5,-318 1357.5,-312 1357.5,-312 1357.5,-300 1357.5,-300 1357.5,-294 1363.5,-288 1369.5,-288 1369.5,-288 1517.5,-288 1517.5,-288 1523.5,-288 1529.5,-294 1529.5,-300 1529.5,-300 1529.5,-312 1529.5,-312 1529.5,-318 1523.5,-324 1517.5,-324"/>
<text text-anchor="middle" x="1443.5" y="-303.5" font-family="sans" font-size="10.00">counts_to_scores_Omicron_BA1</text>
</g>
<!-- 9&#45;&gt;17 -->
<g id="edge38" class="edge">
<title>9&#45;&gt;17</title>
<path fill="none" stroke="grey" stroke-width="2" d="M1443.5,-359.7C1443.5,-351.98 1443.5,-342.71 1443.5,-334.11"/>
<polygon fill="grey" stroke="grey" stroke-width="2" points="1447,-334.1 1443.5,-324.1 1440,-334.1 1447,-334.1"/>
</g>
<!-- 10 -->
<g id="node11" class="node">
<title>10</title>
<path fill="none" stroke="#567bd8" stroke-width="2" d="M1511.5,-468C1511.5,-468 1375.5,-468 1375.5,-468 1369.5,-468 1363.5,-462 1363.5,-456 1363.5,-456 1363.5,-444 1363.5,-444 1363.5,-438 1369.5,-432 1375.5,-432 1375.5,-432 1511.5,-432 1511.5,-432 1517.5,-432 1523.5,-438 1523.5,-444 1523.5,-444 1523.5,-456 1523.5,-456 1523.5,-462 1517.5,-468 1511.5,-468"/>
<text text-anchor="middle" x="1443.5" y="-447.5" font-family="sans" font-size="10.00">count_variants_Omicron_BA1</text>
</g>
<!-- 10&#45;&gt;9 -->
<g id="edge32" class="edge">
<title>10&#45;&gt;9</title>
<path fill="none" stroke="grey" stroke-width="2" d="M1443.5,-431.7C1443.5,-423.98 1443.5,-414.71 1443.5,-406.11"/>
<polygon fill="grey" stroke="grey" stroke-width="2" points="1447,-406.1 1443.5,-396.1 1440,-406.1 1447,-406.1"/>
</g>
<!-- 11 -->
<g id="node12" class="node">
<title>11</title>
<path fill="none" stroke="#56d8d0" stroke-width="2" d="M1943,-396C1943,-396 1752,-396 1752,-396 1746,-396 1740,-390 1740,-384 1740,-384 1740,-372 1740,-372 1740,-366 1746,-360 1752,-360 1752,-360 1943,-360 1943,-360 1949,-360 1955,-366 1955,-372 1955,-372 1955,-384 1955,-384 1955,-390 1949,-396 1943,-396"/>
<text text-anchor="middle" x="1847.5" y="-375.5" font-family="sans" font-size="10.00">aggregate_variant_counts_Omicron_BA2</text>
</g>
<!-- 11&#45;&gt;0 -->
<g id="edge22" class="edge">
<title>11&#45;&gt;0</title>
<path fill="none" stroke="grey" stroke-width="2" d="M1792.83,-359.9C1774.7,-351.71 1755.99,-340.09 1743.5,-324 1718.63,-291.98 1723.5,-275.54 1723.5,-235 1723.5,-235 1723.5,-235 1723.5,-161 1723.5,-99.48 1673.91,-96.54 1617.5,-72 1551.75,-43.39 1345.75,-28.04 1244.23,-22.03"/>
<polygon fill="grey" stroke="grey" stroke-width="2" points="1244.33,-18.53 1234.15,-21.45 1243.93,-25.52 1244.33,-18.53"/>
</g>
<!-- 14 -->
<g id="node15" class="node">
<title>14</title>
<path fill="none" stroke="#569ad8" stroke-width="2" d="M1931,-324C1931,-324 1764,-324 1764,-324 1758,-324 1752,-318 1752,-312 1752,-312 1752,-300 1752,-300 1752,-294 1758,-288 1764,-288 1764,-288 1931,-288 1931,-288 1937,-288 1943,-294 1943,-300 1943,-300 1943,-312 1943,-312 1943,-318 1937,-324 1931,-324"/>
<text text-anchor="middle" x="1847.5" y="-303.5" font-family="sans" font-size="10.00">counts_to_cells_ratio_Omicron_BA2</text>
</g>
<!-- 11&#45;&gt;14 -->
<g id="edge35" class="edge">
<title>11&#45;&gt;14</title>
<path fill="none" stroke="grey" stroke-width="2" d="M1847.5,-359.7C1847.5,-351.98 1847.5,-342.71 1847.5,-334.11"/>
<polygon fill="grey" stroke="grey" stroke-width="2" points="1851,-334.1 1847.5,-324.1 1844,-334.1 1851,-334.1"/>
</g>
<!-- 18 -->
<g id="node19" class="node">
<title>18</title>
<path fill="none" stroke="#56c9d8" stroke-width="2" d="M2130.5,-324C2130.5,-324 1982.5,-324 1982.5,-324 1976.5,-324 1970.5,-318 1970.5,-312 1970.5,-312 1970.5,-300 1970.5,-300 1970.5,-294 1976.5,-288 1982.5,-288 1982.5,-288 2130.5,-288 2130.5,-288 2136.5,-288 2142.5,-294 2142.5,-300 2142.5,-300 2142.5,-312 2142.5,-312 2142.5,-318 2136.5,-324 2130.5,-324"/>
<text text-anchor="middle" x="2056.5" y="-303.5" font-family="sans" font-size="10.00">counts_to_scores_Omicron_BA2</text>
</g>
<!-- 11&#45;&gt;18 -->
<g id="edge39" class="edge">
<title>11&#45;&gt;18</title>
<path fill="none" stroke="grey" stroke-width="2" d="M1898.36,-359.97C1927.69,-350.14 1964.75,-337.73 1995.62,-327.39"/>
<polygon fill="grey" stroke="grey" stroke-width="2" points="1997.04,-330.61 2005.41,-324.11 1994.82,-323.97 1997.04,-330.61"/>
</g>
<!-- 12 -->
<g id="node13" class="node">
<title>12</title>
<path fill="none" stroke="#56d873" stroke-width="2" d="M1915.5,-468C1915.5,-468 1779.5,-468 1779.5,-468 1773.5,-468 1767.5,-462 1767.5,-456 1767.5,-456 1767.5,-444 1767.5,-444 1767.5,-438 1773.5,-432 1779.5,-432 1779.5,-432 1915.5,-432 1915.5,-432 1921.5,-432 1927.5,-438 1927.5,-444 1927.5,-444 1927.5,-456 1927.5,-456 1927.5,-462 1921.5,-468 1915.5,-468"/>
<text text-anchor="middle" x="1847.5" y="-447.5" font-family="sans" font-size="10.00">count_variants_Omicron_BA2</text>
</g>
<!-- 12&#45;&gt;11 -->
<g id="edge33" class="edge">
<title>12&#45;&gt;11</title>
<path fill="none" stroke="grey" stroke-width="2" d="M1847.5,-431.7C1847.5,-423.98 1847.5,-414.71 1847.5,-406.11"/>
<polygon fill="grey" stroke="grey" stroke-width="2" points="1851,-406.1 1847.5,-396.1 1844,-406.1 1851,-406.1"/>
</g>
<!-- 13&#45;&gt;0 -->
<g id="edge6" class="edge">
<title>13&#45;&gt;0</title>
<path fill="none" stroke="grey" stroke-width="2" d="M1094.34,-71.88C1110.44,-62.64 1130.5,-51.13 1147.79,-41.21"/>
<polygon fill="grey" stroke="grey" stroke-width="2" points="1149.61,-44.2 1156.54,-36.19 1146.13,-38.13 1149.61,-44.2"/>
</g>
<!-- 14&#45;&gt;0 -->
<g id="edge25" class="edge">
<title>14&#45;&gt;0</title>
<path fill="none" stroke="grey" stroke-width="2" d="M1818.42,-287.92C1805.31,-278.82 1790.73,-266.5 1781.5,-252 1737.27,-182.53 1799.77,-125.9 1737.5,-72 1700.76,-40.2 1378.22,-25.57 1244.35,-20.82"/>
<polygon fill="grey" stroke="grey" stroke-width="2" points="1244.39,-17.32 1234.28,-20.47 1244.15,-24.32 1244.39,-17.32"/>
</g>
<!-- 15&#45;&gt;0 -->
<g id="edge17" class="edge">
<title>15&#45;&gt;0</title>
<path fill="none" stroke="grey" stroke-width="2" d="M1196.11,-287.8C1181.96,-279.2 1167.37,-267.32 1159.5,-252 1150.28,-234.05 1171.53,-104.2 1181.59,-46.5"/>
<polygon fill="grey" stroke="grey" stroke-width="2" points="1185.1,-46.75 1183.38,-36.3 1178.2,-45.54 1185.1,-46.75"/>
</g>
<!-- 16&#45;&gt;0 -->
<g id="edge1" class="edge">
<title>16&#45;&gt;0</title>
<path fill="none" stroke="grey" stroke-width="2" d="M844.05,-287.64C848.79,-257.63 860.27,-194.45 879.5,-144 892.46,-109.99 889.2,-93.58 918.5,-72 951.19,-47.92 1060.03,-32.34 1128.54,-24.67"/>
<polygon fill="grey" stroke="grey" stroke-width="2" points="1129.19,-28.12 1138.75,-23.55 1128.43,-21.16 1129.19,-28.12"/>
</g>
<!-- 19 -->
<g id="node20" class="node">
<title>19</title>
<path fill="none" stroke="#568ad8" stroke-width="2" d="M744,-252C744,-252 561,-252 561,-252 555,-252 549,-246 549,-240 549,-240 549,-228 549,-228 549,-222 555,-216 561,-216 561,-216 744,-216 744,-216 750,-216 756,-222 756,-228 756,-228 756,-240 756,-240 756,-246 750,-252 744,-252"/>
<text text-anchor="middle" x="652.5" y="-231.5" font-family="sans" font-size="10.00">call_strong_escape_sites_Wuhan_Hu_1</text>
</g>
<!-- 16&#45;&gt;19 -->
<g id="edge40" class="edge">
<title>16&#45;&gt;19</title>
<path fill="none" stroke="grey" stroke-width="2" d="M795.27,-287.88C768.97,-278.14 735.86,-265.87 708.14,-255.61"/>
<polygon fill="grey" stroke="grey" stroke-width="2" points="709.18,-252.26 698.58,-252.07 706.75,-258.82 709.18,-252.26"/>
</g>
<!-- 16&#45;&gt;22 -->
<g id="edge43" class="edge">
<title>16&#45;&gt;22</title>
<path fill="none" stroke="grey" stroke-width="2" d="M827,-287.7C811.72,-269.6 786.81,-240.45 764.5,-216 755.98,-206.66 746.42,-196.62 737.9,-187.82"/>
<polygon fill="grey" stroke="grey" stroke-width="2" points="740.22,-185.17 730.74,-180.44 735.2,-190.05 740.22,-185.17"/>
</g>
<!-- 25 -->
<g id="node26" class="node">
<title>25</title>
<path fill="none" stroke="#56d8a2" stroke-width="2" d="M1022.5,-180C1022.5,-180 900.5,-180 900.5,-180 894.5,-180 888.5,-174 888.5,-168 888.5,-168 888.5,-156 888.5,-156 888.5,-150 894.5,-144 900.5,-144 900.5,-144 1022.5,-144 1022.5,-144 1028.5,-144 1034.5,-150 1034.5,-156 1034.5,-156 1034.5,-168 1034.5,-168 1034.5,-174 1028.5,-180 1022.5,-180"/>
<text text-anchor="middle" x="961.5" y="-159.5" font-family="sans" font-size="10.00">output_pdbs_Wuhan_Hu_1</text>
</g>
<!-- 16&#45;&gt;25 -->
<g id="edge52" class="edge">
<title>16&#45;&gt;25</title>
<path fill="none" stroke="grey" stroke-width="2" d="M855.97,-287.87C876.97,-263.03 916,-216.85 940.25,-188.14"/>
<polygon fill="grey" stroke="grey" stroke-width="2" points="943.19,-190.09 946.97,-180.19 937.85,-185.57 943.19,-190.09"/>
</g>
<!-- 28 -->
<g id="node29" class="node">
<title>28</title>
<path fill="none" stroke="#5663d8" stroke-width="2" d="M826.5,-108C826.5,-108 682.5,-108 682.5,-108 676.5,-108 670.5,-102 670.5,-96 670.5,-96 670.5,-84 670.5,-84 670.5,-78 676.5,-72 682.5,-72 682.5,-72 826.5,-72 826.5,-72 832.5,-72 838.5,-78 838.5,-84 838.5,-84 838.5,-96 838.5,-96 838.5,-102 832.5,-108 826.5,-108"/>
<text text-anchor="middle" x="754.5" y="-87.5" font-family="sans" font-size="10.00">make_supp_data_Wuhan_Hu_1</text>
</g>
<!-- 16&#45;&gt;28 -->
<g id="edge55" class="edge">
<title>16&#45;&gt;28</title>
<path fill="none" stroke="grey" stroke-width="2" d="M840.11,-287.56C837.07,-256.9 827.93,-192.04 802.5,-144 797.08,-133.75 789.22,-123.93 781.43,-115.58"/>
<polygon fill="grey" stroke="grey" stroke-width="2" points="783.86,-113.06 774.36,-108.36 778.86,-117.95 783.86,-113.06"/>
</g>
<!-- 17&#45;&gt;0 -->
<g id="edge20" class="edge">
<title>17&#45;&gt;0</title>
<path fill="none" stroke="grey" stroke-width="2" d="M1452.85,-287.97C1474.54,-245.91 1522.53,-135.89 1469.5,-72 1441.45,-38.21 1318.55,-25.83 1244.24,-21.4"/>
<polygon fill="grey" stroke="grey" stroke-width="2" points="1244.28,-17.89 1234.09,-20.82 1243.88,-24.88 1244.28,-17.89"/>
</g>
<!-- 20 -->
<g id="node21" class="node">
<title>20</title>
<path fill="none" stroke="#afd856" stroke-width="2" d="M1365,-252C1365,-252 1180,-252 1180,-252 1174,-252 1168,-246 1168,-240 1168,-240 1168,-228 1168,-228 1168,-222 1174,-216 1180,-216 1180,-216 1365,-216 1365,-216 1371,-216 1377,-222 1377,-228 1377,-228 1377,-240 1377,-240 1377,-246 1371,-252 1365,-252"/>
<text text-anchor="middle" x="1272.5" y="-231.5" font-family="sans" font-size="10.00">call_strong_escape_sites_Omicron_BA1</text>
</g>
<!-- 17&#45;&gt;20 -->
<g id="edge41" class="edge">
<title>17&#45;&gt;20</title>
<path fill="none" stroke="grey" stroke-width="2" d="M1401.67,-287.88C1378.08,-278.22 1348.44,-266.09 1323.5,-255.88"/>
<polygon fill="grey" stroke="grey" stroke-width="2" points="1324.78,-252.62 1314.2,-252.07 1322.12,-259.1 1324.78,-252.62"/>
</g>
<!-- 17&#45;&gt;23 -->
<g id="edge48" class="edge">
<title>17&#45;&gt;23</title>
<path fill="none" stroke="grey" stroke-width="2" d="M1434.02,-287.86C1423.45,-269.38 1405.36,-239.45 1386.5,-216 1378.41,-205.94 1368.63,-195.72 1359.68,-186.97"/>
<polygon fill="grey" stroke="grey" stroke-width="2" points="1362.06,-184.4 1352.42,-180 1357.21,-189.45 1362.06,-184.4"/>
</g>
<!-- 26 -->
<g id="node27" class="node">
<title>26</title>
<path fill="none" stroke="#8fd856" stroke-width="2" d="M1645.5,-252C1645.5,-252 1521.5,-252 1521.5,-252 1515.5,-252 1509.5,-246 1509.5,-240 1509.5,-240 1509.5,-228 1509.5,-228 1509.5,-222 1515.5,-216 1521.5,-216 1521.5,-216 1645.5,-216 1645.5,-216 1651.5,-216 1657.5,-222 1657.5,-228 1657.5,-228 1657.5,-240 1657.5,-240 1657.5,-246 1651.5,-252 1645.5,-252"/>
<text text-anchor="middle" x="1583.5" y="-231.5" font-family="sans" font-size="10.00">output_pdbs_Omicron_BA1</text>
</g>
<!-- 17&#45;&gt;26 -->
<g id="edge53" class="edge">
<title>17&#45;&gt;26</title>
<path fill="none" stroke="grey" stroke-width="2" d="M1477.75,-287.88C1496.56,-278.47 1520.08,-266.71 1540.17,-256.67"/>
<polygon fill="grey" stroke="grey" stroke-width="2" points="1541.74,-259.79 1549.12,-252.19 1538.61,-253.53 1541.74,-259.79"/>
</g>
<!-- 29 -->
<g id="node30" class="node">
<title>29</title>
<path fill="none" stroke="#56d892" stroke-width="2" d="M1448.5,-108C1448.5,-108 1302.5,-108 1302.5,-108 1296.5,-108 1290.5,-102 1290.5,-96 1290.5,-96 1290.5,-84 1290.5,-84 1290.5,-78 1296.5,-72 1302.5,-72 1302.5,-72 1448.5,-72 1448.5,-72 1454.5,-72 1460.5,-78 1460.5,-84 1460.5,-84 1460.5,-96 1460.5,-96 1460.5,-102 1454.5,-108 1448.5,-108"/>
<text text-anchor="middle" x="1375.5" y="-87.5" font-family="sans" font-size="10.00">make_supp_data_Omicron_BA1</text>
</g>
<!-- 17&#45;&gt;29 -->
<g id="edge58" class="edge">
<title>17&#45;&gt;29</title>
<path fill="none" stroke="grey" stroke-width="2" d="M1444.85,-287.62C1446.51,-257.04 1446.76,-192.31 1424.5,-144 1419.64,-133.46 1411.88,-123.6 1403.96,-115.32"/>
<polygon fill="grey" stroke="grey" stroke-width="2" points="1406.29,-112.71 1396.71,-108.18 1401.38,-117.69 1406.29,-112.71"/>
</g>
<!-- 18&#45;&gt;0 -->
<g id="edge23" class="edge">
<title>18&#45;&gt;0</title>
<path fill="none" stroke="grey" stroke-width="2" d="M2142.54,-291.98C2187.87,-283.17 2236.86,-269.87 2250.5,-252 2326.06,-153.03 2309.97,-163.9 2081.5,-72 2004.17,-40.9 1429.66,-24.74 1244.11,-20.29"/>
<polygon fill="grey" stroke="grey" stroke-width="2" points="1244.09,-16.79 1234,-20.05 1243.92,-23.79 1244.09,-16.79"/>
</g>
<!-- 21 -->
<g id="node22" class="node">
<title>21</title>
<path fill="none" stroke="#d6d856" stroke-width="2" d="M1987,-252C1987,-252 1802,-252 1802,-252 1796,-252 1790,-246 1790,-240 1790,-240 1790,-228 1790,-228 1790,-222 1796,-216 1802,-216 1802,-216 1987,-216 1987,-216 1993,-216 1999,-222 1999,-228 1999,-228 1999,-240 1999,-240 1999,-246 1993,-252 1987,-252"/>
<text text-anchor="middle" x="1894.5" y="-231.5" font-family="sans" font-size="10.00">call_strong_escape_sites_Omicron_BA2</text>
</g>
<!-- 18&#45;&gt;21 -->
<g id="edge42" class="edge">
<title>18&#45;&gt;21</title>
<path fill="none" stroke="grey" stroke-width="2" d="M2016.87,-287.88C1994.72,-278.31 1966.94,-266.3 1943.44,-256.15"/>
<polygon fill="grey" stroke="grey" stroke-width="2" points="1944.57,-252.82 1934,-252.07 1941.79,-259.25 1944.57,-252.82"/>
</g>
<!-- 18&#45;&gt;24 -->
<g id="edge50" class="edge">
<title>18&#45;&gt;24</title>
<path fill="none" stroke="grey" stroke-width="2" d="M2050.66,-287.71C2043.36,-268.27 2029.26,-236.7 2008.5,-216 1995.69,-203.23 1979.16,-192.75 1963.29,-184.59"/>
<polygon fill="grey" stroke="grey" stroke-width="2" points="1964.57,-181.32 1954.05,-180.04 1961.48,-187.6 1964.57,-181.32"/>
</g>
<!-- 27 -->
<g id="node28" class="node">
<title>27</title>
<path fill="none" stroke="#d8cb56" stroke-width="2" d="M2229.5,-252C2229.5,-252 2105.5,-252 2105.5,-252 2099.5,-252 2093.5,-246 2093.5,-240 2093.5,-240 2093.5,-228 2093.5,-228 2093.5,-222 2099.5,-216 2105.5,-216 2105.5,-216 2229.5,-216 2229.5,-216 2235.5,-216 2241.5,-222 2241.5,-228 2241.5,-228 2241.5,-240 2241.5,-240 2241.5,-246 2235.5,-252 2229.5,-252"/>
<text text-anchor="middle" x="2167.5" y="-231.5" font-family="sans" font-size="10.00">output_pdbs_Omicron_BA2</text>
</g>
<!-- 18&#45;&gt;27 -->
<g id="edge54" class="edge">
<title>18&#45;&gt;27</title>
<path fill="none" stroke="grey" stroke-width="2" d="M2083.65,-287.88C2098.03,-278.81 2115.88,-267.55 2131.41,-257.76"/>
<polygon fill="grey" stroke="grey" stroke-width="2" points="2133.65,-260.48 2140.24,-252.19 2129.92,-254.56 2133.65,-260.48"/>
</g>
<!-- 30 -->
<g id="node31" class="node">
<title>30</title>
<path fill="none" stroke="#d8bc56" stroke-width="2" d="M2023.5,-108C2023.5,-108 1877.5,-108 1877.5,-108 1871.5,-108 1865.5,-102 1865.5,-96 1865.5,-96 1865.5,-84 1865.5,-84 1865.5,-78 1871.5,-72 1877.5,-72 1877.5,-72 2023.5,-72 2023.5,-72 2029.5,-72 2035.5,-78 2035.5,-84 2035.5,-84 2035.5,-96 2035.5,-96 2035.5,-102 2029.5,-108 2023.5,-108"/>
<text text-anchor="middle" x="1950.5" y="-87.5" font-family="sans" font-size="10.00">make_supp_data_Omicron_BA2</text>
</g>
<!-- 18&#45;&gt;30 -->
<g id="edge59" class="edge">
<title>18&#45;&gt;30</title>
<path fill="none" stroke="grey" stroke-width="2" d="M2053.57,-287.68C2047.69,-256.64 2032.19,-190.45 2000.5,-144 1993.66,-133.98 1984.93,-124.03 1976.68,-115.5"/>
<polygon fill="grey" stroke="grey" stroke-width="2" points="1979.16,-113.02 1969.62,-108.41 1974.2,-117.96 1979.16,-113.02"/>
</g>
<!-- 19&#45;&gt;0 -->
<g id="edge26" class="edge">
<title>19&#45;&gt;0</title>
<path fill="none" stroke="grey" stroke-width="2" d="M640.19,-215.78C633.85,-205.84 626.77,-192.8 623.5,-180 611.22,-131.96 612,-101.98 651.5,-72 688.91,-43.6 998.28,-27.09 1128.78,-21.34"/>
<polygon fill="grey" stroke="grey" stroke-width="2" points="1129.14,-24.82 1138.98,-20.89 1128.84,-17.83 1129.14,-24.82"/>
</g>
<!-- 19&#45;&gt;22 -->
<g id="edge44" class="edge">
<title>19&#45;&gt;22</title>
<path fill="none" stroke="grey" stroke-width="2" d="M667.58,-215.7C674.89,-207.3 683.81,-197.07 691.84,-187.86"/>
<polygon fill="grey" stroke="grey" stroke-width="2" points="694.66,-189.94 698.59,-180.1 689.39,-185.34 694.66,-189.94"/>
</g>
<!-- 20&#45;&gt;0 -->
<g id="edge11" class="edge">
<title>20&#45;&gt;0</title>
<path fill="none" stroke="grey" stroke-width="2" d="M1261.68,-215.75C1255.58,-205.58 1248.08,-192.33 1242.5,-180 1221.8,-134.26 1203.95,-78.44 1194.25,-45.99"/>
<polygon fill="grey" stroke="grey" stroke-width="2" points="1197.59,-44.92 1191.4,-36.31 1190.87,-46.9 1197.59,-44.92"/>
</g>
<!-- 20&#45;&gt;23 -->
<g id="edge47" class="edge">
<title>20&#45;&gt;23</title>
<path fill="none" stroke="grey" stroke-width="2" d="M1287.58,-215.7C1294.89,-207.3 1303.81,-197.07 1311.84,-187.86"/>
<polygon fill="grey" stroke="grey" stroke-width="2" points="1314.66,-189.94 1318.59,-180.1 1309.39,-185.34 1314.66,-189.94"/>
</g>
<!-- 21&#45;&gt;0 -->
<g id="edge9" class="edge">
<title>21&#45;&gt;0</title>
<path fill="none" stroke="grey" stroke-width="2" d="M1861.57,-215.9C1846.78,-206.87 1830.09,-194.62 1818.5,-180 1786.4,-139.52 1816.91,-102.89 1775.5,-72 1733.55,-40.71 1384.78,-25.64 1244.55,-20.8"/>
<polygon fill="grey" stroke="grey" stroke-width="2" points="1244.53,-17.3 1234.42,-20.46 1244.3,-24.3 1244.53,-17.3"/>
</g>
<!-- 21&#45;&gt;24 -->
<g id="edge51" class="edge">
<title>21&#45;&gt;24</title>
<path fill="none" stroke="grey" stroke-width="2" d="M1898.21,-215.7C1899.86,-207.98 1901.85,-198.71 1903.69,-190.11"/>
<polygon fill="grey" stroke="grey" stroke-width="2" points="1907.16,-190.62 1905.83,-180.1 1900.32,-189.15 1907.16,-190.62"/>
</g>
<!-- 22&#45;&gt;0 -->
<g id="edge24" class="edge">
<title>22&#45;&gt;0</title>
<path fill="none" stroke="grey" stroke-width="2" d="M691.35,-143.9C669.36,-124.92 641.58,-94.04 661.5,-72 692.38,-37.84 998.58,-24.65 1128.6,-20.56"/>
<polygon fill="grey" stroke="grey" stroke-width="2" points="1128.87,-24.05 1138.76,-20.24 1128.66,-17.05 1128.87,-24.05"/>
</g>
<!-- 22&#45;&gt;28 -->
<g id="edge56" class="edge">
<title>22&#45;&gt;28</title>
<path fill="none" stroke="grey" stroke-width="2" d="M723.63,-143.7C728.35,-135.64 734.06,-125.89 739.28,-116.98"/>
<polygon fill="grey" stroke="grey" stroke-width="2" points="742.45,-118.5 744.48,-108.1 736.41,-114.96 742.45,-118.5"/>
</g>
<!-- 23&#45;&gt;0 -->
<g id="edge21" class="edge">
<title>23&#45;&gt;0</title>
<path fill="none" stroke="grey" stroke-width="2" d="M1315.77,-143.87C1289.83,-118.82 1241.42,-72.05 1211.77,-43.41"/>
<polygon fill="grey" stroke="grey" stroke-width="2" points="1213.92,-40.62 1204.29,-36.19 1209.06,-45.65 1213.92,-40.62"/>
</g>
<!-- 23&#45;&gt;29 -->
<g id="edge57" class="edge">
<title>23&#45;&gt;29</title>
<path fill="none" stroke="grey" stroke-width="2" d="M1343.88,-143.7C1348.76,-135.56 1354.69,-125.69 1360.08,-116.7"/>
<polygon fill="grey" stroke="grey" stroke-width="2" points="1363.09,-118.48 1365.24,-108.1 1357.09,-114.88 1363.09,-118.48"/>
</g>
<!-- 24&#45;&gt;0 -->
<g id="edge5" class="edge">
<title>24&#45;&gt;0</title>
<path fill="none" stroke="grey" stroke-width="2" d="M1892.03,-143.63C1867,-118.93 1822.91,-76.16 1813.5,-72 1712.46,-27.37 1379.78,-20.18 1244.49,-19.13"/>
<polygon fill="grey" stroke="grey" stroke-width="2" points="1244.35,-15.62 1234.32,-19.05 1244.3,-22.62 1244.35,-15.62"/>
</g>
<!-- 24&#45;&gt;30 -->
<g id="edge60" class="edge">
<title>24&#45;&gt;30</title>
<path fill="none" stroke="grey" stroke-width="2" d="M1919.63,-143.7C1924.35,-135.64 1930.06,-125.89 1935.28,-116.98"/>
<polygon fill="grey" stroke="grey" stroke-width="2" points="1938.45,-118.5 1940.48,-108.1 1932.41,-114.96 1938.45,-118.5"/>
</g>
<!-- 25&#45;&gt;0 -->
<g id="edge19" class="edge">
<title>25&#45;&gt;0</title>
<path fill="none" stroke="grey" stroke-width="2" d="M946,-143.94C930.45,-124.7 911.11,-93.33 928.5,-72 953.27,-41.62 1060.58,-28.16 1128.77,-22.58"/>
<polygon fill="grey" stroke="grey" stroke-width="2" points="1129.25,-26.06 1138.94,-21.79 1128.7,-19.08 1129.25,-26.06"/>
</g>
<!-- 26&#45;&gt;0 -->
<g id="edge13" class="edge">
<title>26&#45;&gt;0</title>
<path fill="none" stroke="grey" stroke-width="2" d="M1580.2,-215.84C1572.79,-182.29 1551.48,-108.12 1502.5,-72 1462.49,-42.5 1324.33,-28.36 1244.56,-22.51"/>
<polygon fill="grey" stroke="grey" stroke-width="2" points="1244.41,-18.99 1234.18,-21.77 1243.91,-25.97 1244.41,-18.99"/>
</g>
<!-- 27&#45;&gt;0 -->
<g id="edge10" class="edge">
<title>27&#45;&gt;0</title>
<path fill="none" stroke="grey" stroke-width="2" d="M2160.42,-215.96C2145.11,-181.59 2105.33,-104.45 2044.5,-72 1974.26,-34.53 1425.13,-22.7 1244.14,-19.8"/>
<polygon fill="grey" stroke="grey" stroke-width="2" points="1244.08,-16.3 1234.02,-19.64 1243.97,-23.3 1244.08,-16.3"/>
</g>
<!-- 28&#45;&gt;0 -->
<g id="edge27" class="edge">
<title>28&#45;&gt;0</title>
<path fill="none" stroke="grey" stroke-width="2" d="M838.68,-74.32C843.36,-73.53 847.99,-72.75 852.5,-72 949.26,-55.93 1061.97,-38.26 1128.61,-27.93"/>
<polygon fill="grey" stroke="grey" stroke-width="2" points="1129.55,-31.32 1138.9,-26.33 1128.48,-24.41 1129.55,-31.32"/>
</g>
<!-- 29&#45;&gt;0 -->
<g id="edge18" class="edge">
<title>29&#45;&gt;0</title>
<path fill="none" stroke="grey" stroke-width="2" d="M1329.27,-71.88C1302.97,-62.14 1269.86,-49.87 1242.14,-39.61"/>
<polygon fill="grey" stroke="grey" stroke-width="2" points="1243.18,-36.26 1232.58,-36.07 1240.75,-42.82 1243.18,-36.26"/>
</g>
<!-- 30&#45;&gt;0 -->
<g id="edge7" class="edge">
<title>30&#45;&gt;0</title>
<path fill="none" stroke="grey" stroke-width="2" d="M1865.25,-73.86C1860.61,-73.19 1856,-72.56 1851.5,-72 1627.84,-43.94 1359.89,-27.91 1244.27,-21.84"/>
<polygon fill="grey" stroke="grey" stroke-width="2" points="1244.39,-18.34 1234.23,-21.32 1244.03,-25.33 1244.39,-18.34"/>
</g>
</g>
</svg>
